<svg xmlns="http://www.w3.org/2000/svg" version="1.1" xmlns:xlink="http://www.w3.org/1999/xlink" width="500" height="500"><svg xmlns="http://www.w3.org/2000/svg" version="1.1" xmlns:xlink="http://www.w3.org/1999/xlink" width="500" height="500"><svg width="500" height="500" viewBox="0 0 500 500" fill="none" xmlns="http://www.w3.org/2000/svg">
<g clip-path="url(#clip0_0_26)">
<rect width="500" height="500" rx="70" fill="#0D0D0D"></rect>
<path d="M103.513 112.149C-22.0033 209.073 129.556 358.308 228.838 433.595C424.692 346.565 483.427 172.145 407.628 133.728C346.99 102.995 274.665 140.368 247.628 215.667C236.612 145.344 152.123 74.611 103.513 112.149Z" fill="#FF358C"></path>
<path d="M330.296 246.601L315.831 266.872L306.146 340.116L268.673 335.161L300.204 96.6929L337.677 101.648L323.939 205.552L386.734 108.134L424.207 113.089L358.031 212.486L392.676 351.557L354.181 346.467L330.296 246.601Z" fill="white"></path>
<path d="M181.302 295.924L172.703 319.295L182.703 392.497L145.251 397.613L112.692 159.283L150.144 154.167L164.33 258.011L199.172 147.469L236.624 142.352L199.044 255.696L269.183 380.682L230.71 385.938L181.302 295.924Z" fill="white"></path>
<rect x="76" y="154.385" width="74.1476" height="30.0345" transform="rotate(-6.51608 76 154.385)" fill="white"></rect>
<rect x="263.948" y="92" width="74.1476" height="30.0345" transform="rotate(7.45985 263.948 92)" fill="white"></rect>
</g>
<defs>
<clipPath id="clip0_0_26">
<rect width="500" height="500" rx="70" fill="white"></rect>
</clipPath>
</defs>
</svg></svg><style>@media (prefers-color-scheme: light) { :root { filter: none; } }
@media (prefers-color-scheme: dark) { :root { filter: none; } }
</style></svg>