<svg width="500" height="500" viewBox="0 0 500 500" fill="none" xmlns="http://www.w3.org/2000/svg">
<g clip-path="url(#clip0_0_14)">
<rect width="500" height="500" rx="70" fill="#0D0D0D"/>
<path d="M342.163 210.489C299.95 142.205 445.62 88.6799 523.731 70.4527L525.4 104.062C473.621 113.824 373.199 143.853 385.737 185.865C398.275 227.877 515.102 147.294 571.948 101.751C512.942 166.448 384.376 278.772 342.163 210.489Z" fill="#4A4A4A"/>
<path d="M464.343 59.9538C341.838 53.0443 60.0097 130.562 -87.2546 495.907C-20.0915 391.58 184.256 158.333 464.343 59.9538Z" fill="#4A4A4A"/>
<path d="M-66.7721 482.09C51.1497 510.34 340.879 484.85 556.424 156.898C470.423 246.128 225.382 436.089 -66.7721 482.09Z" fill="#4A4A4A"/>
<path d="M376.827 395.211C347.278 399.183 357.913 437.733 366.993 459.327C407.062 463.582 433.03 440.713 424.305 427.33C417.324 416.623 394.733 424.037 382.027 439.493C392.748 417.185 388.272 393.672 376.827 395.211Z" fill="#FF358C" stroke="#FF358C" stroke-width="1.6" stroke-linejoin="round"/>
<path d="M41.6758 96.1838C42.7443 125.98 82.1482 119.159 104.526 112.23C112.672 72.7674 92.4475 44.6912 78.2759 52.0687C66.9386 57.9707 72.1125 81.1781 86.2546 95.3322C65.0995 82.4844 41.262 84.6441 41.6758 96.1838Z" fill="#FF358C" stroke="#FF358C" stroke-width="1.6" stroke-linejoin="round"/>
<path d="M330.296 246.601L315.831 266.872L306.146 340.116L268.673 335.161L300.204 96.6929L337.677 101.648L323.939 205.552L386.734 108.134L424.207 113.089L358.031 212.486L392.676 351.557L354.181 346.467L330.296 246.601Z" fill="white"/>
<path d="M181.302 295.924L172.703 319.295L182.703 392.497L145.251 397.613L112.692 159.283L150.144 154.167L164.33 258.011L199.172 147.469L236.624 142.352L199.044 255.696L269.183 380.682L230.71 385.938L181.302 295.924Z" fill="white"/>
<rect x="75.9999" y="154.385" width="74.1476" height="30.0345" transform="rotate(-6.51608 75.9999 154.385)" fill="white"/>
<rect x="263.948" y="92" width="74.1476" height="30.0345" transform="rotate(7.45985 263.948 92)" fill="white"/>
<path d="M139.763 46.2188C120.929 52.2796 132.397 76.2105 140.861 89.2497C167.531 87.328 181.809 69.345 174.54 61.6272C168.724 55.453 154.839 62.946 148.353 74.5317C152.739 58.7035 147.057 43.8715 139.763 46.2188Z" fill="#FF358C" stroke="#FF358C" stroke-width="1.6" stroke-linejoin="round"/>
</g>
<defs>
<clipPath id="clip0_0_14">
<rect width="500" height="500" rx="70" fill="white"/>
</clipPath>
</defs>
</svg>
